# xmcd
#
# Track frame offsets:
#	150
#	10372
#	20650
#	29794
#	51161
#	66458
#	132885
#	140432
#	151527
#	163286
#	173144
#	183824
#	196889
#	213088
#	225338
#	237902
#	251383
#	261487
#	272528
#	282574
#
# Disc length: 3904 seconds
#
# Revision: 0
# Processed by: cddbd v1.5.1PL2 Copyright (c) Steve Scherf et al.
# Submitted via: dBpowerAMP V4.0
#
DISCID=1e0f3e14
DTITLE=Various Artist - Country Christmas - CD 3
DYEAR=2003
DGENRE=Country
TTITLE0=Gene Autry - Buone Natale
TTITLE1=Kitty Wells - Christmas
TTITLE2=Country Cousins - Conga
TTITLE3=Frankie Lane - Sunday Morning Going Down
TTITLE4=Wanda Jackson - Jesus Is The Answer
TTITLE5=Gene Autry - Story Of The Nativity
TTITLE6=Johnny Cash - If The Good Lord´s Willing
TTITLE7=Patsy Cline - I Go To Church On A Sunday (Dear God)
TTITLE8=Freddy Fender - Jesus Loves Me
TTITLE9=Ferlin Huskeys - The Wings Of A Dove
TTITLE10=Oak Ridge Quartet - As I Walk Thru The Valley
TTITLE11=Chris Sayer - Line Hop Boogie
TTITLE12=Slim Whitman - The Three Bells
TTITLE13=Hank Williams - I Saw The Light
TTITLE14=Patsy Cline - Just A Closer Walk With Thee
TTITLE15=The Brownsferry Four - Will The Circle Be Unbroken
TTITLE16=Frankie Lane - I Believe
TTITLE17=Oak Ridge Quartet - Do Unto Others
TTITLE18=Glen Campbell - Try A Little Kindness
TTITLE19=Country Cousins - Rockin´ Around The Christmas Tree
EXTD=
EXTT0=
EXTT1=
EXTT2=
EXTT3=
EXTT4=
EXTT5=
EXTT6=
EXTT7=
EXTT8=
EXTT9=
EXTT10=
EXTT11=
EXTT12=
EXTT13=
EXTT14=
EXTT15=
EXTT16=
EXTT17=
EXTT18=
EXTT19=
PLAYORDER=
